<svg xmlns="http://www.w3.org/2000/svg" viewBox="0 0 720 1008" role="img" aria-labelledby="title desc">
  <title id="title">Lorepsum card back</title>
  <desc id="desc">Default back artwork for Lorepsum collectible cards.</desc>
  <defs>
    <radialGradient id="glow" cx="50%" cy="42%" r="55%">
      <stop offset="0%" stop-color="#c084fc" stop-opacity="0.34"/>
      <stop offset="48%" stop-color="#7c3aed" stop-opacity="0.12"/>
      <stop offset="100%" stop-color="#111217" stop-opacity="0"/>
    </radialGradient>
    <linearGradient id="edge" x1="0" y1="0" x2="1" y2="1">
      <stop offset="0%" stop-color="#d8b4fe" stop-opacity="0.55"/>
      <stop offset="45%" stop-color="#8b5cf6" stop-opacity="0.12"/>
      <stop offset="100%" stop-color="#d8b4fe" stop-opacity="0.38"/>
    </linearGradient>
    <pattern id="grid" width="48" height="48" patternUnits="userSpaceOnUse">
      <path d="M48 0H0v48" fill="none" stroke="#d8b4fe" stroke-opacity="0.08" stroke-width="1"/>
    </pattern>
  </defs>
  <rect width="720" height="1008" rx="44" fill="#111217"/>
  <rect width="720" height="1008" rx="44" fill="url(#grid)"/>
  <rect width="720" height="1008" rx="44" fill="url(#glow)"/>
  <rect x="36" y="36" width="648" height="936" rx="34" fill="none" stroke="url(#edge)" stroke-width="3"/>
  <rect x="72" y="72" width="576" height="864" rx="24" fill="none" stroke="#d8b4fe" stroke-opacity="0.18" stroke-width="2"/>
  <g fill="none" stroke="#d8b4fe" stroke-linecap="round" stroke-linejoin="round">
    <path d="M360 250v508" stroke-opacity="0.22" stroke-width="2"/>
    <path d="M106 504h508" stroke-opacity="0.22" stroke-width="2"/>
    <path d="M360 250 470 504 360 758 250 504Z" stroke-opacity="0.5" stroke-width="4"/>
    <circle cx="360" cy="504" r="102" stroke-opacity="0.42" stroke-width="4"/>
    <circle cx="360" cy="504" r="18" fill="#c084fc" fill-opacity="0.8" stroke-width="0"/>
    <circle cx="360" cy="250" r="9" fill="#d8b4fe" fill-opacity="0.6" stroke-width="0"/>
    <circle cx="470" cy="504" r="9" fill="#d8b4fe" fill-opacity="0.6" stroke-width="0"/>
    <circle cx="360" cy="758" r="9" fill="#d8b4fe" fill-opacity="0.6" stroke-width="0"/>
    <circle cx="250" cy="504" r="9" fill="#d8b4fe" fill-opacity="0.6" stroke-width="0"/>
  </g>
  <text x="360" y="864" fill="#d8b4fe" fill-opacity="0.72" font-family="Arial, sans-serif" font-size="34" font-weight="700" letter-spacing="10" text-anchor="middle">LOREPSUM</text>
</svg>
